PathFileType	3	(X/Y/Z)	RCH0000002 BBF 04.c3d
DataRate	CameraRate	NumFrames	NumMarkers	Units	OrigDataRate	OrigDataStartFrame	OrigNumFrames
100.0	100.0	9	23	mm	100.0	572	346
Frame#	Time	T2			MAN			RASI			LPAT			LKNE			LANK			LMED			LHEE			LTOE			RPAT			RKNE			LASI			T10			RPSI			RANK			RTOE			RMED			RHEE			LPSI			RTHI			LTHI			RTIB			LTIB			
		X1	Y1	Z1	X2	Y2	Z2	X3	Y3	Z3	X4	Y4	Z4	X5	Y5	Z5	X6	Y6	Z6	X7	Y7	Z7	X8	Y8	Z8	X9	Y9	Z9	X10	Y10	Z10	X11	Y11	Z11	X12	Y12	Z12	X13	Y13	Z13	X14	Y14	Z14	X15	Y15	Z15	X16	Y16	Z16	X17	Y17	Z17	X18	Y18	Z18	X19	Y19	Z19	X20	Y20	Z20	X21	Y21	Z21	X22	Y22	Z22	X23	Y23	Z23	

572	5.710	1268.28840	55.84745	978.92458	1401.05796	69.00527	951.63006	1399.09408	-33.72055	651.60301	1336.06933	110.54339	362.80684	1283.83634	168.72423	338.23729	1150.90930	190.23274	97.07783	1153.06201	121.29785	113.32757	1122.04233	154.64504	141.73443	1189.68479	149.93833	73.16261	1502.41141	34.36828	401.19019	1471.62238	-23.47091	355.08465	1362.14697	139.73172	653.30284	1280.25906	38.77174	791.64677	1274.98491	-6.70582	689.54193	1417.24172	-56.19354	94.59297	1453.90868	-13.20053	80.16242	1395.75837	10.37853	101.91010	1368.68829	-31.93082	127.17543	1262.17725	61.43278	691.56060	1452.53562	-97.46950	462.18741	1297.52058	230.14003	466.88498	1461.49001	-101.65603	251.79365	1232.70006	242.18809	238.11858	
573	5.720	1277.52240	54.60483	977.42908	1410.48587	68.06091	951.13824	1409.00498	-34.70877	650.87992	1346.84060	109.05817	360.70442	1294.47153	167.21713	336.44401	1156.35336	190.16205	99.09594	1157.90800	121.18692	114.94175	1128.40219	154.89289	144.50313	1193.50526	149.41697	73.63138	1507.62977	35.22577	397.81274	1476.72396	-22.97323	352.18775	1371.83043	138.63749	651.49558	1290.80250	38.48463	790.41795	1285.16575	-7.44431	689.53676	1417.62529	-56.08859	92.87450	1454.05316	-12.89872	78.54518	1395.97833	10.45668	100.46659	1369.52108	-32.04490	126.03432	1272.22049	60.72979	690.71565	1460.32789	-97.32894	459.52435	1307.78963	228.64053	465.13565	1465.20768	-101.06814	249.14858	1242.31254	241.11821	237.75441	
574	5.730	1286.70016	53.67954	976.08688	1419.88825	67.22844	950.87392	1418.78307	-35.97759	650.53926	1357.93840	107.29755	358.75135	1305.47617	165.49541	334.76017	1162.38852	189.93653	101.33567	1163.31762	120.91743	116.70682	1135.35807	154.94396	147.41014	1197.87467	148.78289	74.32296	1512.51755	35.27120	394.91033	1481.35307	-23.14735	349.79767	1381.64293	137.28909	649.74382	1301.38980	38.35550	789.38893	1295.28768	-8.19670	689.96002	1417.54689	-56.30900	91.57056	1453.72057	-12.93355	77.32253	1395.77475	10.22048	99.54165	1369.92353	-32.48372	125.37500	1282.29805	60.02478	690.15828	1467.63634	-97.81428	457.33527	1318.34598	226.88952	463.52377	1468.36984	-101.03788	246.86102	1252.36734	239.83745	237.56687	
575	5.740	1295.80763	53.06569	974.94646	1429.24248	66.51161	950.85826	1428.40243	-37.52354	650.60038	1369.32496	105.28647	357.03322	1316.79285	163.57455	333.27022	1168.98372	189.49689	103.82837	1169.33406	120.42901	118.63245	1142.88632	154.69402	150.45004	1202.84864	148.02825	75.29333	1517.03644	34.48018	392.51030	1485.48069	-24.02133	347.94700	1391.55732	135.68820	648.11143	1311.97161	38.36018	788.60353	1305.32296	-8.97127	690.81907	1417.25336	-56.85263	90.63190	1453.14961	-13.28911	76.45666	1395.35882	9.65785	99.08156	1370.09769	-33.27133	125.11522	1292.38316	59.30626	689.93059	1474.42478	-98.94115	455.65474	1329.13823	224.90166	462.13264	1471.07059	-101.59239	244.92691	1262.74085	238.33416	237.64759	
576	5.750	1304.83319	52.74259	974.05119	1438.52745	65.90879	951.10667	1437.84542	-39.33429	651.06798	1380.98032	103.06642	355.63391	1328.37543	161.47601	332.05500	1176.10376	188.77539	106.59909	1176.00874	119.65240	120.71935	1150.96422	154.02642	153.61068	1208.49081	147.14205	76.59103	1521.14245	32.87379	390.60369	1489.07353	-25.58759	346.63408	1401.54629	133.84416	646.66139	1322.50067	38.46526	788.09802	1315.25085	-9.77892	692.10548	1416.92769	-57.68932	89.99186	1452.52492	-13.92687	75.89276	1394.89398	8.78689	99.01176	1370.19111	-34.39455	125.15727	1302.45243	58.55992	690.06336	1480.66976	-100.69241	454.48389	1340.11327	222.69972	461.04120	1473.36675	-102.72421	243.32129	1273.30927	236.59836	238.08771	
577	5.760	1313.76847	52.67551	973.43641	1447.72473	65.41316	951.62695	1447.10270	-41.38897	651.93116	1392.90280	100.69606	354.63033	1340.19098	159.22770	331.18606	1183.71890	187.70004	109.65866	1183.40324	118.51454	122.95561	1159.57778	152.82165	156.86893	1214.87362	146.10926	78.24924	1524.79078	30.51865	389.15278	1492.10035	-27.80183	345.82810	1411.58267	131.77409	645.45145	1332.93387	38.62996	787.89842	1325.05723	-10.63207	693.79482	1416.68453	-58.76478	89.57756	1451.97207	-14.79066	75.56819	1394.49203	7.65352	99.24647	1370.29420	-35.80464	125.40010	1312.48549	57.77009	690.57324	1486.36256	-103.01870	453.79279	1351.21738	220.31479	460.31817	1475.27864	-104.39188	242.00634	1283.96018	234.62322	238.96755	
578	5.770	1322.60910	52.81750	973.12704	1456.81978	65.01325	952.41766	1456.17244	-43.65915	653.16369	1405.10680	98.24903	354.08786	1352.22049	156.86359	330.72052	1191.81528	186.20022	112.99566	1191.58963	116.94515	125.31399	1168.72902	150.96946	160.18705	1222.07806	144.90998	80.27862	1527.94120	27.52260	388.10101	1494.53884	-30.58535	345.47664	1421.63969	129.50257	644.52991	1343.23366	38.80859	788.01855	1334.73362	-11.54300	695.84756	1416.57599	-60.00688	89.32023	1451.56074	-15.81266	75.42076	1394.21602	6.32605	99.69833	1370.44622	-37.42353	125.75057	1322.46418	56.92176	691.46087	1491.51061	-105.84178	453.52587	1362.39819	217.78563	460.01654	1476.79801	-106.52346	240.93946	1294.60504	232.40616	240.34558	
579	5.780	1331.35536	53.11191	973.13601	1465.80291	64.69392	953.46709	1465.05893	-46.11034	654.72521	1417.61854	95.80862	354.05664	1364.45889	154.42206	330.69699	1200.40447	184.21354	116.57014	1200.64863	114.88451	127.75110	1178.44142	148.38241	163.51071	1230.19197	143.51915	82.66198	1530.56354	24.02618	387.38326	1496.38228	-33.83080	345.51392	1431.69117	127.06076	643.93208	1353.36895	38.95356	788.45893	1344.27565	-12.52205	698.21072	1416.60494	-61.33343	89.16305	1451.31426	-16.91970	75.39528	1394.08849	4.88724	100.28691	1370.64738	-39.15369	126.13225	1332.37169	56.00261	692.70998	1496.13819	-109.06045	453.60935	1373.60779	215.15690	460.16889	1477.90108	-109.02285	240.07989	1305.19125	229.94940	242.24811	
580	5.790	1340.01249	53.49568	973.46345	1474.67002	64.43750	954.75271	1473.77070	-48.70381	656.56348	1430.47046	93.45968	354.56908	1376.91460	151.94337	331.13289	1209.53020	181.69348	120.31051	1210.66555	112.29162	130.20884	1188.76212	145.00920	166.76940	1239.30703	141.90730	85.35206	1532.64279	20.19056	386.93464	1497.64471	-37.41096	345.86874	1441.71168	124.48504	643.67753	1363.31534	39.01866	789.20657	1353.68146	-13.57595	700.82034	1416.74204	-62.66084	89.06564	1451.22272	-18.03985	75.44749	1394.10266	3.42486	100.94498	1370.87384	-40.89020	126.49064	1342.19168	55.00491	694.28754	1500.28619	-112.55835	453.95954	1384.80694	212.47663	460.78397	1478.56353	-111.77838	239.39298	1315.71222	227.26024	244.66147	
